<svg width="88" height="30" viewBox="0 0 88 30" fill="none" xmlns="http://www.w3.org/2000/svg">
<path d="M26.48 29L26.44 10.44L17.24 25.8H14.92L5.72 10.68V29H0.76V0.999998H5.04L16.16 19.56L27.08 0.999998H31.36L31.4 29H26.48ZM48.6031 17.28L44.1631 21.84V29H38.9631V0.999998H44.1631V15.36L58.0031 0.999998H63.8431L52.0831 13.52L64.5631 29H58.4831L48.6031 17.28ZM76.1978 29.4C74.0378 29.4 71.9445 29.0933 69.9178 28.48C67.9178 27.8667 66.3311 27.0533 65.1578 26.04L66.9578 22C68.1045 22.9067 69.5045 23.6533 71.1578 24.24C72.8378 24.8 74.5178 25.08 76.1978 25.08C78.2778 25.08 79.8245 24.7467 80.8378 24.08C81.8778 23.4133 82.3978 22.5333 82.3978 21.44C82.3978 20.64 82.1045 19.9867 81.5178 19.48C80.9578 18.9467 80.2378 18.5333 79.3578 18.24C78.4778 17.9467 77.2778 17.6133 75.7578 17.24C73.6245 16.7333 71.8911 16.2267 70.5578 15.72C69.2511 15.2133 68.1178 14.4267 67.1578 13.36C66.2245 12.2667 65.7578 10.8 65.7578 8.96C65.7578 7.41333 66.1711 6.01333 66.9978 4.76C67.8511 3.48 69.1178 2.46666 70.7978 1.72C72.5045 0.973332 74.5845 0.599998 77.0378 0.599998C78.7445 0.599998 80.4245 0.813332 82.0778 1.24C83.7311 1.66667 85.1578 2.28 86.3578 3.08L84.7178 7.12C83.4911 6.4 82.2111 5.85333 80.8778 5.48C79.5445 5.10667 78.2511 4.92 76.9978 4.92C74.9445 4.92 73.4111 5.26666 72.3978 5.96C71.4111 6.65333 70.9178 7.57333 70.9178 8.72C70.9178 9.52 71.1978 10.1733 71.7578 10.68C72.3445 11.1867 73.0778 11.5867 73.9578 11.88C74.8378 12.1733 76.0378 12.5067 77.5578 12.88C79.6378 13.36 81.3445 13.8667 82.6778 14.4C84.0111 14.9067 85.1445 15.6933 86.0778 16.76C87.0378 17.8267 87.5178 19.2667 87.5178 21.08C87.5178 22.6267 87.0911 24.0267 86.2378 25.28C85.4111 26.5333 84.1445 27.5333 82.4378 28.28C80.7311 29.0267 78.6511 29.4 76.1978 29.4Z" fill="white"/>
</svg>
